<?xml version="1.0" encoding="UTF-8"?>
<svg height="16px" viewBox="0 0 16 16" width="16px" xmlns="http://www.w3.org/2000/svg" xmlns:xlink="http://www.w3.org/1999/xlink">
    <filter id="a" height="100%" width="100%" x="0%" y="0%">
        <feColorMatrix color-interpolation-filters="sRGB" values="0 0 0 0 1 0 0 0 0 1 0 0 0 0 1 0 0 0 1 0"/>
    </filter>
    <mask id="b">
        <g filter="url(#a)">
            <rect fill-opacity="0.299238" height="19.2" width="19.2" x="-1.6" y="-1.6"/>
        </g>
    </mask>
    <clipPath id="c">
        <path d="m 13 0 h 128 v 145 h -128 z m 0 0"/>
    </clipPath>
    <clipPath id="d">
        <rect height="152" width="192"/>
    </clipPath>
    <g mask="url(#b)">
        <g clip-path="url(#d)" transform="matrix(1 0 0 1 -168 -16)">
            <g clip-path="url(#c)">
                <path d="m 39.999929 217.315426 v -7.527344 c 0 -11.480468 9.308594 -20.789062 20.789063 -20.789062 h 18.105468 c 11.480469 0 20.789063 9.308594 20.789063 20.789062 v 59.148438" fill="none" stroke="#ffffff" stroke-width="6" transform="matrix(1 0 0 1 7.363352 -157.93652)"/>
            </g>
        </g>
    </g>
    <path d="m 8 0 c -4.40625 0 -8 3.59375 -8 8 s 3.59375 8 8 8 c 0.390625 0 0.769531 -0.027344 1.144531 -0.082031 c -1.140625 -0.835938 -2.0625 -1.640625 -2.769531 -2.550781 c -0.792969 -1.03125 -1.257812 -2.21875 -1.355469 -3.574219 c -0.675781 -0.121094 -1.289062 -0.273438 -1.800781 -0.460938 c -0.488281 -0.179687 -0.886719 -0.382812 -1.171875 -0.585937 c -0.03125 -0.246094 -0.046875 -0.492188 -0.046875 -0.746094 c 0 -0.25 0.015625 -0.5 0.046875 -0.742188 c 0.285156 -0.203124 0.683594 -0.410156 1.175781 -0.589843 c 0.515625 -0.1875 1.132813 -0.34375 1.816406 -0.464844 c -0.054687 0.578125 -0.085937 1.175781 -0.085937 1.796875 c 0 0.421875 0.019531 0.828125 0.046875 1.230469 c 0 -0.082031 0 -0.160157 0.003906 -0.242188 c 0.003906 -1.449219 0.554688 -2.886719 1.511719 -3.96875 c -0.105469 0.007813 -0.210937 0.011719 -0.3125 0.019531 c 0.121094 -0.683593 0.277344 -1.300781 0.46875 -1.816406 c 0.175781 -0.492187 0.378906 -0.890625 0.585937 -1.175781 c 0.242188 -0.03125 0.488282 -0.046875 0.742188 -0.046875 s 0.5 0.015625 0.742188 0.046875 c 0.207031 0.285156 0.410156 0.683594 0.589843 1.175781 c 0 0.003906 0.003907 0.011719 0.007813 0.019532 c 0.320312 -0.09375 0.652344 -0.164063 0.984375 -0.199219 c -0.019531 -0.054688 -0.035157 -0.113281 -0.050781 -0.164063 c -0.066407 -0.179687 -0.136719 -0.351562 -0.210938 -0.515625 c 0.457031 0.164063 0.882812 0.382813 1.277344 0.648438 c 1.453125 0.085937 2.871094 0.714843 3.902344 1.746093 c 0.042968 0.042969 0.085937 0.089844 0.128906 0.132813 c -1.21875 -2.871094 -4.066406 -4.890625 -7.371094 -4.890625 z m -2.0625 2.363281 c -0.074219 0.164063 -0.144531 0.335938 -0.207031 0.515625 c -0.242188 0.664063 -0.433594 1.433594 -0.566407 2.285156 c -0.851562 0.132813 -1.621093 0.324219 -2.285156 0.566407 c -0.179687 0.0625 -0.351562 0.132812 -0.515625 0.207031 c 0.601563 -1.660156 1.914063 -2.972656 3.574219 -3.574219 z m -3.574219 7.699219 c 0.164063 0.074219 0.335938 0.144531 0.515625 0.207031 c 0.664063 0.242188 1.433594 0.433594 2.285156 0.566407 c 0.132813 0.851562 0.324219 1.621093 0.566407 2.285156 c 0.0625 0.179687 0.132812 0.351562 0.207031 0.515625 c -1.660156 -0.601563 -2.972656 -1.914063 -3.574219 -3.574219 z m 0 0"/>
    <path d="m 11 4 c -2.761719 0 -5 2.238281 -5 5 c -0.105469 3.03125 1.550781 4.65625 5 7 c 3 -2.480469 5 -3.816406 5 -7 c 0 -2.761719 -2.238281 -5 -5 -5 z m 0 3 c 1.105469 0 2 0.894531 2 2 s -0.894531 2 -2 2 s -2 -0.894531 -2 -2 s 0.894531 -2 2 -2 z m 0 0"/>
</svg>
